# Blender 5.1.1
# www.blender.org
mtllib RacingUnited_3D_Logo.mtl
o RacingUnited_3D_Logo
v -0.487438 0.562077 -0.035010
v -0.435004 0.343698 -0.035010
v -0.034049 0.343698 -0.035010
v -0.014739 0.335183 -0.035010
v -0.008530 0.315180 -0.035010
v -0.015347 0.296055 -0.035010
v -0.034049 0.288042 -0.035010
v -0.421628 0.288042 -0.035010
v -0.369551 0.071003 -0.035010
v -0.038425 0.071003 -0.035010
v -0.022248 0.070195 -0.035010
v -0.007508 0.063087 -0.035010
v -0.003646 0.047414 -0.035010
v -0.003646 -0.075356 -0.035010
v 0.003364 -0.108276 -0.035010
v 0.021389 -0.136705 -0.035010
v 0.046686 -0.159047 -0.035010
v 0.077460 -0.172785 -0.035010
v 0.111117 -0.177621 -0.035010
v 0.143816 -0.173339 -0.035010
v 0.174290 -0.159714 -0.035010
v 0.198761 -0.136995 -0.035010
v 0.215629 -0.108154 -0.035010
v 0.221790 -0.075356 -0.035010
v 0.221790 0.047414 -0.035010
v 0.218983 0.080130 -0.035010
v 0.209299 0.111507 -0.035010
v 0.192455 0.139694 -0.035010
v 0.171325 0.164829 -0.035010
v 0.203187 0.209147 -0.035010
v 0.220917 0.260777 -0.035010
v 0.225375 0.315180 -0.035010
v 0.220127 0.364250 -0.035010
v 0.203918 0.410865 -0.035010
v 0.178677 0.453272 -0.035010
v 0.145575 0.489876 -0.035010
v 0.106355 0.519831 -0.035010
v 0.062501 0.542466 -0.035010
v 0.015372 0.557112 -0.035010
v -0.033728 0.562077 -0.035010
v 0.262107 0.219405 -0.035010
v 0.262107 -0.087801 -0.035010
v 0.250467 -0.129672 -0.035010
v 0.226987 -0.166184 -0.035010
v 0.193914 -0.194301 -0.035010
v 0.153967 -0.211280 -0.035010
v 0.111117 -0.217619 -0.035010
v 0.067735 -0.211189 -0.035010
v 0.027523 -0.193689 -0.035010
v -0.006354 -0.166049 -0.035010
v -0.031097 -0.129852 -0.035010
v -0.043400 -0.087801 -0.035010
v -0.043400 0.028552 -0.035010
v -0.267009 0.028552 -0.035010
v -0.267009 -0.087801 -0.035010
v -0.262145 -0.144875 -0.035010
v -0.247607 -0.200280 -0.035010
v -0.223453 -0.252219 -0.035010
v -0.191593 -0.299821 -0.035010
v -0.152121 -0.341331 -0.035010
v -0.106384 -0.375815 -0.035010
v -0.056043 -0.403144 -0.035010
v -0.002146 -0.422539 -0.035010
v 0.053936 -0.434195 -0.035010
v 0.111117 -0.437582 -0.035010
v 0.167423 -0.434424 -0.035010
v 0.222806 -0.423787 -0.035010
v 0.275868 -0.404688 -0.035010
v 0.441890 -0.256950 -0.035010
v 0.325407 -0.377738 -0.035010
v 0.409710 -0.303261 -0.035010
v 0.370285 -0.343587 -0.035010
v 0.465880 -0.205911 -0.035010
v 0.481224 -0.151644 -0.035010
v 0.487135 -0.095559 -0.035010
v 0.487135 0.036108 -0.035010
v 0.480067 0.090341 -0.035010
v 0.454005 0.138426 -0.035010
v 0.417630 0.179267 -0.035010
v 0.369775 0.205752 -0.035010
v 0.316799 0.217564 -0.035010
v -0.022248 0.070195 0.164651
v 0.192455 0.139694 0.164651
v -0.007508 0.063087 0.164651
v 0.015372 0.557112 0.164651
v -0.033728 0.562077 0.164651
v 0.077460 -0.172785 0.164651
v 0.143816 -0.173339 0.164651
v 0.220917 0.260777 0.164651
v 0.225375 0.315180 0.164651
v 0.226987 -0.166184 0.164651
v 0.409710 -0.303261 0.164651
v -0.487438 0.562077 0.164651
v 0.454005 0.138426 0.164651
v 0.262107 -0.087801 0.164651
v -0.043400 0.028552 0.164651
v -0.267009 0.028552 0.164651
v 0.487135 -0.095559 0.164651
v 0.487135 0.036108 0.164651
v 0.209299 0.111507 0.164651
v -0.034049 0.343698 0.164651
v -0.014739 0.335183 0.164651
v 0.220127 0.364250 0.164651
v -0.008530 0.315180 0.164651
v -0.003646 0.047414 0.164651
v -0.369551 0.071003 0.164651
v -0.038425 0.071003 0.164651
v 0.250467 -0.129672 0.164651
v 0.480067 0.090341 0.164651
v 0.203918 0.410865 0.164651
v 0.221790 -0.075356 0.164651
v 0.221790 0.047414 0.164651
v 0.111117 -0.177621 0.164651
v 0.067735 -0.211189 0.164651
v 0.027523 -0.193689 0.164651
v 0.193914 -0.194301 0.164651
v 0.153967 -0.211280 0.164651
v -0.056043 -0.403144 0.164651
v -0.002146 -0.422539 0.164651
v 0.062501 0.542466 0.164651
v 0.106355 0.519831 0.164651
v 0.145575 0.489876 0.164651
v 0.178677 0.453272 0.164651
v -0.435004 0.343698 0.164651
v -0.015347 0.296055 0.164651
v -0.034049 0.288042 0.164651
v 0.203187 0.209147 0.164651
v 0.369775 0.205752 0.164651
v 0.316799 0.217564 0.164651
v 0.262107 0.219405 0.164651
v 0.417630 0.179267 0.164651
v 0.171325 0.164829 0.164651
v 0.218983 0.080130 0.164651
v 0.003364 -0.108276 0.164651
v 0.021389 -0.136705 0.164651
v -0.003646 -0.075356 0.164651
v 0.215629 -0.108154 0.164651
v 0.174290 -0.159714 0.164651
v 0.198761 -0.136995 0.164651
v -0.031097 -0.129852 0.164651
v -0.043400 -0.087801 0.164651
v 0.111117 -0.217619 0.164651
v 0.046686 -0.159047 0.164651
v -0.006354 -0.166049 0.164651
v 0.481224 -0.151644 0.164651
v 0.222806 -0.423787 0.164651
v -0.152121 -0.341331 0.164651
v -0.106384 -0.375815 0.164651
v 0.325407 -0.377738 0.164651
v 0.370285 -0.343587 0.164651
v 0.275868 -0.404688 0.164651
v 0.053936 -0.434195 0.164651
v 0.167423 -0.434423 0.164651
v 0.111117 -0.437582 0.164651
v -0.421628 0.288042 0.164651
v -0.267009 -0.087801 0.164651
v -0.262145 -0.144875 0.164651
v 0.441890 -0.256950 0.164651
v -0.223453 -0.252219 0.164651
v -0.191593 -0.299821 0.164651
v -0.247607 -0.200280 0.164651
v 0.465880 -0.205911 0.164651
vn -0.0000 -0.0000 -1.0000
vn -0.0000 -0.0000 1.0000
vn 0.8045 0.5940 -0.0000
vn 0.6772 0.7358 -0.0000
vn 0.1997 0.9799 -0.0000
vn 0.0099 1.0000 -0.0000
vn -1.0000 -0.0000 -0.0000
vn -0.9996 -0.0281 -0.0000
vn -0.9994 0.0334 -0.0000
vn -0.9126 0.4090 -0.0000
vn 0.9065 0.4221 -0.0000
vn 0.9970 0.0775 -0.0000
vn 1.0000 -0.0000 -0.0000
vn 0.2727 -0.9621 -0.0000
vn 0.5517 -0.8341 -0.0000
vn -0.9724 -0.2335 -0.0000
vn 0.9788 -0.2048 -0.0000
vn 1.0000 0.0076 -0.0000
vn 0.9368 -0.3499 -0.0000
vn 0.9820 -0.1891 -0.0000
vn 0.9993 0.0380 -0.0000
vn 0.9514 0.3080 -0.0000
vn 0.7802 -0.6256 -0.0000
vn 0.9758 0.2188 -0.0000
vn 0.9038 0.4279 -0.0000
vn -0.7464 -0.6656 -0.0000
vn -0.9998 0.0207 -0.0000
vn -0.0000 1.0000 -0.0000
vn 0.8146 0.5801 -0.0000
vn 0.9993 0.0379 -0.0000
vn 0.7708 -0.6371 -0.0000
vn 0.8662 -0.4998 -0.0000
vn 0.0010 1.0000 -0.0000
vn 0.2752 0.9614 -0.0000
vn -0.7288 0.6847 -0.0000
vn -0.7608 -0.6490 -0.0000
vn -0.5410 -0.8410 -0.0000
vn -0.0197 0.9998 -0.0000
vn -0.0023 -1.0000 -0.0000
vn -0.2480 -0.9688 -0.0000
vn 0.9995 -0.0315 -0.0000
vn 0.7364 0.6765 -0.0000
vn 0.8884 -0.4592 -0.0000
vn 0.9135 0.4068 -0.0000
vn -0.8715 -0.4904 -0.0000
vn -0.7807 -0.6249 -0.0000
vn -0.2769 -0.9609 -0.0000
vn -0.0083 -1.0000 -0.0000
vn 0.1258 0.9921 -0.0000
vn 0.0336 0.9994 -0.0000
vn -0.0203 -0.9998 -0.0000
vn -0.0203 -0.9998 0.0001
vn -0.7526 0.6585 -0.0000
vn -0.5254 0.8508 -0.0000
vn 0.3551 0.9348 -0.0000
vn -0.9408 -0.3391 -0.0000
vn -0.2713 0.9625 -0.0000
vn -0.7766 -0.6300 -0.0000
vn -0.9996 -0.0279 -0.0000
vn 0.6244 0.7811 -0.0000
vn -0.0000 -1.0000 -0.0000
vn -0.6656 -0.7463 -0.0000
vn -0.5411 -0.8410 -0.0000
vn 0.8184 0.5746 -0.0000
vn -0.9990 -0.0450 -0.0000
vn -0.4090 -0.9125 -0.0000
vn 0.9815 0.1913 -0.0000
vn 0.5433 -0.8395 -0.0000
vn 0.6621 -0.7494 -0.0000
vn 0.4095 -0.9123 -0.0000
vn 0.9992 -0.0396 -0.0000
vn 0.9998 0.0181 -0.0000
vn -0.2717 -0.9624 -0.0000
vn -0.1317 -0.9913 -0.0000
vn -0.9854 -0.1700 -0.0000
vn 0.2644 -0.9644 -0.0000
vn -0.9259 -0.3778 -0.0000
vn 0.5205 0.8539 -0.0000
vn 0.1226 -0.9925 -0.0000
vn -0.0019 -1.0000 -0.0000
vn 0.3792 0.9253 -0.0000
vn -0.9724 -0.2333 -0.0000
vn 0.5349 0.8449 -0.0000
vt 0.235971 0.000000
vt 0.164213 0.000000
vt 0.127415 0.000000
vt 0.117755 0.000000
vt 0.675713 0.000000
vt 0.673413 0.000000
vt 0.662834 0.000000
vt 0.655934 0.000000
vt 0.699632 0.000000
vt 0.638454 0.000000
vt 0.633395 0.000000
vt 0.708507 0.000000
vt 0.554738 0.000000
vt 0.634961 0.000000
vt 0.762190 0.000000
vt 0.569917 0.000000
vt 0.792548 0.000000
vt 0.334407 0.000000
vt 0.304048 0.000000
vt 0.294388 0.000000
vt 0.287488 0.000000
vt 0.650643 0.000000
vt 0.617755 0.000000
vt 0.589516 0.000000
vt 0.710672 0.000000
vt 0.665465 0.000000
vt 0.415823 0.000000
vt 0.105796 0.000000
vt 0.416743 0.000000
vt 0.998160 0.000000
vt 0.985741 0.000000
vt 0.546458 0.000000
vt 0.961822 0.000000
vt 0.968261 0.000000
vt 0.953082 0.000000
vt 0.936983 0.000000
vt 0.356946 0.000000
vt 0.356486 0.000000
vt 0.249310 0.000000
vt 0.285649 0.000000
vt 0.336247 0.000000
vt 0.299448 0.000000
vt 0.824747 0.000000
vt 0.558878 0.000000
vt 0.675178 0.000000
vt 0.752530 0.000000
vt 0.741030 0.000000
vt 0.915363 0.000000
vt 0.913983 0.000000
vt 0.551058 0.000000
vt 0.885925 0.000000
vt 0.874885 0.000000
vt 0.351426 0.000000
vt 0.252530 0.000000
vt 0.073597 0.000000
vt 0.533579 0.000000
vt 0.527599 0.000000
vt 0.099356 0.000000
vt 0.921343 0.000000
vt 0.341766 0.000000
vt 0.260350 0.000000
vt 0.679853 0.000000
vt 0.109476 0.000000
vt 0.391444 0.000000
vt 0.388224 0.000000
vt 0.383165 0.000000
vt 0.237522 0.000000
vt 0.115915 0.000000
vt 0.240602 0.000000
vt 0.239244 0.000000
vt 0.375345 0.000000
vt 0.364765 0.000000
vt 0.357406 0.000000
vt 0.241950 0.000000
vt 0.420883 0.000000
vt 0.418583 0.000000
vt 0.102116 0.000000
vt 0.435603 0.000000
vt 0.698252 0.000000
vt 0.720791 0.000000
vt 0.573137 0.000000
vt 0.756210 0.000000
vt 0.448482 0.000000
vt 0.473781 0.000000
vt 0.496780 0.000000
vt 0.526219 0.000000
vt 0.648674 0.000000
vt 0.690892 0.000000
vt 0.909384 0.000000
s 1
usemtl SVGMat
f 10/1/1 9/2/1 8/3/1 7/4/1
f 55/5/1 54/6/1 53/7/1 52/8/1
f 58/9/1 51/10/1 50/11/1
f 72/12/1 44/13/1 71/14/1
f 66/15/1 46/16/1 67/17/1
f 21/18/1 20/19/1 18/20/1 17/21/1
f 62/22/1 49/23/1 48/24/1
f 50/11/1 60/25/1 59/26/1
f 31/27/1 5/28/1 32/29/1
f 41/30/1 81/31/1 42/32/1
f 79/33/1 42/32/1 80/34/1
f 78/35/1 77/36/1 42/32/1
f 26/37/1 25/38/1 13/39/1
f 16/40/1 22/41/1 21/18/1 17/21/1
f 19/42/1 18/20/1 20/19/1
f 81/31/1 80/34/1 42/32/1
f 68/43/1 45/44/1 70/45/1
f 48/24/1 64/46/1 63/47/1
f 42/32/1 75/48/1 74/49/1
f 43/50/1 73/51/1 69/52/1
f 25/38/1 24/53/1 14/54/1 13/39/1
f 2/55/1 1/56/1 40/57/1 3/58/1
f 42/32/1 76/59/1 75/48/1
f 23/60/1 22/41/1 16/40/1 15/61/1
f 78/35/1 42/32/1 79/33/1
f 56/62/1 52/8/1 51/10/1
f 6/63/1 30/64/1 29/65/1
f 29/66/1 10/67/1 7/68/1
f 12/69/1 11/70/1 28/71/1
f 27/72/1 26/73/1 13/74/1
f 29/66/1 28/71/1 11/70/1
f 5/28/1 34/75/1 33/76/1
f 4/77/1 35/78/1 34/75/1
f 14/54/1 24/53/1 23/60/1 15/61/1
f 42/32/1 77/36/1 76/59/1
f 55/5/1 52/8/1 56/62/1
f 57/79/1 51/10/1 58/9/1
f 49/23/1 61/80/1 60/25/1
f 61/80/1 49/23/1 62/22/1
f 47/81/1 65/82/1 64/46/1
f 66/15/1 65/82/1 47/81/1
f 68/43/1 67/17/1 46/16/1
f 72/12/1 70/45/1 45/44/1
f 44/13/1 43/50/1 69/52/1
f 43/50/1 42/32/1 74/49/1
f 35/78/1 4/77/1 36/83/1
f 36/83/1 4/77/1 37/84/1
f 4/77/1 38/85/1 37/84/1
f 38/85/1 3/58/1 39/86/1
f 39/86/1 3/58/1 40/57/1
f 3/58/1 38/85/1 4/77/1
f 34/75/1 5/28/1 4/77/1
f 5/28/1 33/76/1 32/29/1
f 5/28/1 30/64/1 6/63/1
f 30/64/1 5/28/1 31/27/1
f 6/63/1 29/65/1 7/68/1
f 58/9/1 50/11/1 59/87/1
f 62/22/1 48/24/1 63/47/1
f 56/62/1 51/10/1 57/88/1
f 49/23/1 60/25/1 50/11/1
f 47/81/1 64/46/1 48/24/1
f 66/15/1 47/81/1 46/16/1
f 68/43/1 46/16/1 45/44/1
f 72/12/1 45/44/1 44/13/1
f 44/13/1 69/52/1 71/14/1
f 43/50/1 74/49/1 73/89/1
f 12/69/1 28/71/1 27/72/1
f 27/72/1 13/74/1 12/69/1
f 29/66/1 11/70/1 10/67/1
f 107/1/2 126/4/2 155/3/2 106/2/2
f 156/5/2 141/8/2 96/7/2 97/6/2
f 159/9/2 144/11/2 140/10/2
f 150/12/2 92/14/2 91/13/2
f 153/15/2 146/17/2 117/16/2
f 138/18/2 143/21/2 87/20/2 88/19/2
f 118/22/2 114/24/2 115/23/2
f 144/11/2 160/26/2 147/25/2
f 89/27/2 90/29/2 104/28/2
f 130/30/2 95/32/2 129/31/2
f 131/33/2 128/34/2 95/32/2
f 94/35/2 95/32/2 109/36/2
f 133/37/2 105/39/2 112/38/2
f 135/40/2 143/21/2 138/18/2 139/41/2
f 113/42/2 88/19/2 87/20/2
f 129/31/2 95/32/2 128/34/2
f 151/43/2 149/45/2 116/44/2
f 114/24/2 119/47/2 152/46/2
f 95/32/2 145/49/2 98/48/2
f 108/50/2 158/52/2 162/51/2
f 112/38/2 105/39/2 136/54/2 111/53/2
f 124/55/2 101/58/2 86/57/2 93/56/2
f 95/32/2 98/48/2 99/59/2
f 137/60/2 134/61/2 135/40/2 139/41/2
f 94/35/2 131/33/2 95/32/2
f 157/62/2 140/10/2 141/8/2
f 125/63/2 132/65/2 127/64/2
f 132/66/2 126/68/2 107/67/2
f 84/69/2 83/71/2 82/70/2
f 100/72/2 105/74/2 133/73/2
f 132/66/2 82/70/2 83/71/2
f 104/28/2 103/76/2 110/75/2
f 102/77/2 110/75/2 123/78/2
f 136/54/2 134/61/2 137/60/2 111/53/2
f 95/32/2 99/59/2 109/36/2
f 156/5/2 157/62/2 141/8/2
f 161/79/2 159/9/2 140/10/2
f 115/23/2 147/25/2 148/80/2
f 148/80/2 118/22/2 115/23/2
f 142/81/2 152/46/2 154/82/2
f 153/15/2 142/81/2 154/82/2
f 151/43/2 117/16/2 146/17/2
f 150/12/2 116/44/2 149/45/2
f 91/13/2 158/52/2 108/50/2
f 108/50/2 145/49/2 95/32/2
f 123/78/2 122/83/2 102/77/2
f 122/83/2 121/84/2 102/77/2
f 102/77/2 121/84/2 120/85/2
f 120/85/2 85/86/2 101/58/2
f 85/86/2 86/57/2 101/58/2
f 101/58/2 102/77/2 120/85/2
f 110/75/2 102/77/2 104/28/2
f 104/28/2 90/29/2 103/76/2
f 104/28/2 125/63/2 127/64/2
f 127/64/2 89/27/2 104/28/2
f 125/63/2 126/68/2 132/65/2
f 159/9/2 160/87/2 144/11/2
f 118/22/2 119/47/2 114/24/2
f 157/62/2 161/88/2 140/10/2
f 115/23/2 144/11/2 147/25/2
f 142/81/2 114/24/2 152/46/2
f 153/15/2 117/16/2 142/81/2
f 151/43/2 116/44/2 117/16/2
f 150/12/2 91/13/2 116/44/2
f 91/13/2 92/14/2 158/52/2
f 108/50/2 162/89/2 145/49/2
f 84/69/2 100/72/2 83/71/2
f 100/72/2 84/69/2 105/74/2
f 132/66/2 107/67/2 82/70/2
f 35/78/3 36/83/4 122/83/4 123/78/3
f 39/86/5 40/57/6 86/57/6 85/86/5
f 54/6/7 55/5/8 156/5/8 97/6/7
f 42/32/9 43/50/10 108/50/10 95/32/9
f 34/75/11 35/78/3 123/78/3 110/75/11
f 52/8/12 53/7/13 96/7/13 141/8/12
f 20/19/14 21/18/15 138/18/15 88/19/14
f 1/56/16 2/55/16 124/55/16 93/56/16
f 31/27/17 32/29/18 90/29/18 89/27/17
f 73/89/19 74/49/20 145/49/20 162/89/19
f 76/59/21 77/36/22 109/36/22 99/59/21
f 22/41/23 23/60/19 137/60/19 139/41/23
f 33/76/24 34/75/11 110/75/11 103/76/24
f 41/30/7 42/32/9 95/32/9 130/30/7
f 51/10/25 52/8/12 141/8/12 140/10/25
f 4/77/26 5/28/27 104/28/27 102/77/26
f 40/57/6 1/56/28 93/56/28 86/57/6
f 28/71/29 29/66/30 132/66/30 83/71/29
f 71/14/31 69/52/32 158/52/32 92/14/31
f 47/81/33 48/24/34 114/24/34 142/81/33
f 5/28/27 6/63/35 125/63/35 104/28/27
f 16/40/36 17/21/37 143/21/37 135/40/36
f 6/63/35 7/68/38 126/68/38 125/63/35
f 53/7/28 54/6/28 97/6/28 96/7/28
f 21/18/15 22/41/23 139/41/23 138/18/15
f 10/67/39 11/70/40 82/70/40 107/67/39
f 75/48/41 76/59/21 99/59/21 98/48/41
f 50/11/42 51/10/25 140/10/25 144/11/42
f 30/64/43 31/27/17 89/27/17 127/64/43
f 27/72/44 28/71/29 83/71/29 100/72/44
f 58/9/45 59/87/46 160/87/46 159/9/45
f 17/21/37 18/20/47 87/20/47 143/21/37
f 19/42/48 20/19/14 88/19/14 113/42/48
f 81/31/49 41/30/50 130/30/50 129/31/49
f 3/58/51 4/77/26 102/77/26 101/58/52
f 44/13/53 45/44/54 116/44/54 91/13/53
f 80/34/55 81/31/49 129/31/49 128/34/55
f 32/29/18 33/76/24 103/76/24 90/29/18
f 57/79/56 58/9/45 159/9/45 161/79/56
f 74/49/20 75/48/41 98/48/41 145/49/20
f 46/16/57 47/81/33 142/81/33 117/16/57
f 29/65/30 30/64/43 127/64/43 132/65/30
f 12/69/58 13/74/59 105/74/59 84/69/58
f 79/33/60 80/34/55 128/34/55 131/33/60
f 9/2/61 10/1/39 107/1/39 106/2/61
f 60/25/62 61/80/63 148/80/63 147/25/62
f 78/35/64 79/33/60 131/33/60 94/35/64
f 43/50/10 44/13/53 91/13/53 108/50/10
f 13/39/59 14/54/65 136/54/65 105/39/59
f 61/80/63 62/22/66 118/22/66 148/80/63
f 26/73/67 27/72/44 100/72/44 133/73/67
f 69/52/32 73/51/19 162/51/19 158/52/32
f 70/45/68 72/12/69 150/12/69 149/45/68
f 68/43/70 70/45/68 149/45/68 151/43/70
f 24/53/71 25/38/72 112/38/72 111/53/71
f 59/26/46 60/25/62 147/25/62 160/26/46
f 63/47/73 64/46/74 152/46/74 119/47/73
f 77/36/22 78/35/64 94/35/64 109/36/22
f 18/20/47 19/42/48 113/42/48 87/20/47
f 56/62/75 57/88/56 161/88/56 157/62/75
f 67/17/76 68/43/70 151/43/70 146/17/76
f 15/61/77 16/40/36 135/40/36 134/61/77
f 48/24/34 49/23/78 115/23/78 114/24/34
f 66/15/79 67/17/76 146/17/76 153/15/79
f 45/44/54 46/16/57 117/16/57 116/44/54
f 72/12/69 71/14/31 92/14/31 150/12/69
f 65/82/80 66/15/79 153/15/79 154/82/80
f 25/38/72 26/37/67 133/37/67 112/38/72
f 62/22/66 63/47/73 119/47/73 118/22/66
f 7/4/38 8/3/28 155/3/28 126/4/38
f 64/46/74 65/82/80 154/82/80 152/46/74
f 38/85/81 39/86/5 85/86/5 120/85/81
f 8/3/82 9/2/82 106/2/82 155/3/82
f 2/55/61 3/58/51 101/58/52 124/55/61
f 37/84/83 38/85/81 120/85/81 121/84/83
f 49/23/78 50/11/42 144/11/42 115/23/78
f 14/54/65 15/61/77 134/61/77 136/54/65
f 36/83/4 37/84/83 121/84/83 122/83/4
f 11/70/40 12/69/58 84/69/58 82/70/40
f 55/5/8 56/62/75 157/62/75 156/5/8
f 23/60/19 24/53/71 111/53/71 137/60/19
